<svg width="113" height="40" viewBox="0 0 113 40" fill="none" xmlns="http://www.w3.org/2000/svg">
<path d="M28.5 10H20.5C19.9696 10 19.4609 10.2107 19.0858 10.5858C18.7107 10.9609 18.5 11.4696 18.5 12V28C18.5 28.5304 18.7107 29.0391 19.0858 29.4142C19.4609 29.7893 19.9696 30 20.5 30H32.5C33.0304 30 33.5391 29.7893 33.9142 29.4142C34.2893 29.0391 34.5 28.5304 34.5 28V16L28.5 10Z" stroke="#445EE2" stroke-width="2" stroke-linecap="round" stroke-linejoin="round"/>
<path d="M28.5 10V16H34.5" stroke="#445EE2" stroke-width="2" stroke-linecap="round" stroke-linejoin="round"/>
<path d="M26.5 26V20" stroke="#445EE2" stroke-width="2" stroke-linecap="round" stroke-linejoin="round"/>
<path d="M23.5 23H29.5" stroke="#445EE2" stroke-width="2" stroke-linecap="round" stroke-linejoin="round"/>
<path d="M44.822 25L48.406 15.2H50.422L54.006 25H52.102L51.318 22.732H47.496L46.698 25H44.822ZM47.986 21.332H50.828L49.4 17.258L47.986 21.332ZM57.8103 25.168C57.1569 25.168 56.5736 25.0093 56.0603 24.692C55.5469 24.3747 55.1409 23.9407 54.8423 23.39C54.5436 22.8393 54.3943 22.214 54.3943 21.514C54.3943 20.814 54.5436 20.1933 54.8423 19.652C55.1409 19.1013 55.5469 18.672 56.0603 18.364C56.5736 18.0467 57.1569 17.888 57.8103 17.888C58.3329 17.888 58.7903 17.986 59.1823 18.182C59.5743 18.378 59.8916 18.6533 60.1343 19.008V14.92H61.9263V25H60.3303L60.1343 24.006C59.9103 24.314 59.6116 24.5847 59.2383 24.818C58.8743 25.0513 58.3983 25.168 57.8103 25.168ZM58.1883 23.6C58.7669 23.6 59.2383 23.4087 59.6023 23.026C59.9756 22.634 60.1623 22.1347 60.1623 21.528C60.1623 20.9213 59.9756 20.4267 59.6023 20.044C59.2383 19.652 58.7669 19.456 58.1883 19.456C57.6189 19.456 57.1476 19.6473 56.7743 20.03C56.4009 20.4127 56.2143 20.9073 56.2143 21.514C56.2143 22.1207 56.4009 22.62 56.7743 23.012C57.1476 23.404 57.6189 23.6 58.1883 23.6ZM66.6631 25.168C66.0098 25.168 65.4264 25.0093 64.9131 24.692C64.3998 24.3747 63.9938 23.9407 63.6951 23.39C63.3964 22.8393 63.2471 22.214 63.2471 21.514C63.2471 20.814 63.3964 20.1933 63.6951 19.652C63.9938 19.1013 64.3998 18.672 64.9131 18.364C65.4264 18.0467 66.0098 17.888 66.6631 17.888C67.1858 17.888 67.6431 17.986 68.0351 18.182C68.4271 18.378 68.7444 18.6533 68.9871 19.008V14.92H70.7791V25H69.1831L68.9871 24.006C68.7631 24.314 68.4644 24.5847 68.0911 24.818C67.7271 25.0513 67.2511 25.168 66.6631 25.168ZM67.0411 23.6C67.6198 23.6 68.0911 23.4087 68.4551 23.026C68.8284 22.634 69.0151 22.1347 69.0151 21.528C69.0151 20.9213 68.8284 20.4267 68.4551 20.044C68.0911 19.652 67.6198 19.456 67.0411 19.456C66.4718 19.456 66.0004 19.6473 65.6271 20.03C65.2538 20.4127 65.0671 20.9073 65.0671 21.514C65.0671 22.1207 65.2538 22.62 65.6271 23.012C66.0004 23.404 66.4718 23.6 67.0411 23.6ZM75.7018 25V19.554H74.7498V18.056H75.7018V17.244C75.7018 16.404 75.9118 15.8067 76.3318 15.452C76.7612 15.0973 77.3398 14.92 78.0678 14.92H78.8378V16.446H78.3478C78.0398 16.446 77.8205 16.5067 77.6898 16.628C77.5592 16.7493 77.4938 16.9547 77.4938 17.244V18.056H81.9738V25H80.1818V19.554H77.4938V25H75.7018ZM81.0918 17.062C80.7652 17.062 80.4945 16.964 80.2798 16.768C80.0745 16.572 79.9718 16.3247 79.9718 16.026C79.9718 15.7273 80.0745 15.4847 80.2798 15.298C80.4945 15.102 80.7652 15.004 81.0918 15.004C81.4185 15.004 81.6845 15.102 81.8898 15.298C82.1045 15.4847 82.2118 15.7273 82.2118 16.026C82.2118 16.3247 82.1045 16.572 81.8898 16.768C81.6845 16.964 81.4185 17.062 81.0918 17.062ZM83.5901 25V14.92H85.3821V25H83.5901ZM90.3071 25.168C89.6071 25.168 88.9865 25.0187 88.4451 24.72C87.9038 24.4213 87.4791 24.0013 87.1711 23.46C86.8631 22.9187 86.7091 22.2933 86.7091 21.584C86.7091 20.8653 86.8585 20.226 87.1571 19.666C87.4651 19.106 87.8851 18.672 88.4171 18.364C88.9585 18.0467 89.5931 17.888 90.3211 17.888C91.0025 17.888 91.6045 18.0373 92.1271 18.336C92.6498 18.6347 93.0558 19.0453 93.3451 19.568C93.6438 20.0813 93.7931 20.6553 93.7931 21.29C93.7931 21.3927 93.7885 21.5 93.7791 21.612C93.7791 21.724 93.7745 21.8407 93.7651 21.962H88.4871C88.5245 22.5033 88.7111 22.928 89.0471 23.236C89.3925 23.544 89.8078 23.698 90.2931 23.698C90.6571 23.698 90.9605 23.6187 91.2031 23.46C91.4551 23.292 91.6418 23.0773 91.7631 22.816H93.5831C93.4525 23.2547 93.2331 23.656 92.9251 24.02C92.6265 24.3747 92.2531 24.6547 91.8051 24.86C91.3665 25.0653 90.8671 25.168 90.3071 25.168ZM90.3211 19.344C89.8825 19.344 89.4951 19.47 89.1591 19.722C88.8231 19.9647 88.6085 20.338 88.5151 20.842H91.9731C91.9451 20.3847 91.7771 20.0207 91.4691 19.75C91.1611 19.4793 90.7785 19.344 90.3211 19.344Z" fill="#445EE2"/>
<rect x="0.5" y="0.5" width="112" height="39" rx="4.5" stroke="#445EE2"/>
</svg>
