<svg width="139" height="38" viewBox="0 0 139 38" fill="none" xmlns="http://www.w3.org/2000/svg">
<path d="M30 24.0605V18.0605" stroke="#445EE2" stroke-width="2" stroke-linecap="round" stroke-linejoin="round"/>
<path d="M27 21.0605H33" stroke="#445EE2" stroke-width="2" stroke-linecap="round" stroke-linejoin="round"/>
<path d="M40 26V16C40 15.4696 39.7893 14.9609 39.4142 14.5858C39.0391 14.2107 38.5304 14 38 14H31.236C30.8645 14 30.5004 13.8965 30.1844 13.7012C29.8684 13.5058 29.6131 13.2263 29.447 12.894L28.553 11.106C28.3869 10.7735 28.1314 10.4939 27.8152 10.2986C27.499 10.1032 27.1347 9.99983 26.763 10H22C21.4696 10 20.9609 10.2107 20.5858 10.5858C20.2107 10.9609 20 11.4696 20 12V26C20 26.5304 20.2107 27.0391 20.5858 27.4142C20.9609 27.7893 21.4696 28 22 28H38C38.5304 28 39.0391 27.7893 39.4142 27.4142C39.7893 27.0391 40 26.5304 40 26Z" stroke="#445EE2" stroke-width="2" stroke-linecap="round" stroke-linejoin="round"/>
<path d="M50.322 24L53.906 14.2H55.922L59.506 24H57.602L56.818 21.732H52.996L52.198 24H50.322ZM53.486 20.332H56.328L54.9 16.258L53.486 20.332ZM63.3103 24.168C62.6569 24.168 62.0736 24.0093 61.5603 23.692C61.0469 23.3747 60.6409 22.9407 60.3423 22.39C60.0436 21.8393 59.8943 21.214 59.8943 20.514C59.8943 19.814 60.0436 19.1933 60.3423 18.652C60.6409 18.1013 61.0469 17.672 61.5603 17.364C62.0736 17.0467 62.6569 16.888 63.3103 16.888C63.8329 16.888 64.2903 16.986 64.6823 17.182C65.0743 17.378 65.3916 17.6533 65.6343 18.008V13.92H67.4263V24H65.8303L65.6343 23.006C65.4103 23.314 65.1116 23.5847 64.7383 23.818C64.3743 24.0513 63.8983 24.168 63.3103 24.168ZM63.6883 22.6C64.2669 22.6 64.7383 22.4087 65.1023 22.026C65.4756 21.634 65.6623 21.1347 65.6623 20.528C65.6623 19.9213 65.4756 19.4267 65.1023 19.044C64.7383 18.652 64.2669 18.456 63.6883 18.456C63.1189 18.456 62.6476 18.6473 62.2743 19.03C61.9009 19.4127 61.7143 19.9073 61.7143 20.514C61.7143 21.1207 61.9009 21.62 62.2743 22.012C62.6476 22.404 63.1189 22.6 63.6883 22.6ZM72.1631 24.168C71.5098 24.168 70.9264 24.0093 70.4131 23.692C69.8998 23.3747 69.4938 22.9407 69.1951 22.39C68.8964 21.8393 68.7471 21.214 68.7471 20.514C68.7471 19.814 68.8964 19.1933 69.1951 18.652C69.4938 18.1013 69.8998 17.672 70.4131 17.364C70.9264 17.0467 71.5098 16.888 72.1631 16.888C72.6858 16.888 73.1431 16.986 73.5351 17.182C73.9271 17.378 74.2444 17.6533 74.4871 18.008V13.92H76.2791V24H74.6831L74.4871 23.006C74.2631 23.314 73.9644 23.5847 73.5911 23.818C73.2271 24.0513 72.7511 24.168 72.1631 24.168ZM72.5411 22.6C73.1198 22.6 73.5911 22.4087 73.9551 22.026C74.3284 21.634 74.5151 21.1347 74.5151 20.528C74.5151 19.9213 74.3284 19.4267 73.9551 19.044C73.5911 18.652 73.1198 18.456 72.5411 18.456C71.9718 18.456 71.5004 18.6473 71.1271 19.03C70.7538 19.4127 70.5671 19.9073 70.5671 20.514C70.5671 21.1207 70.7538 21.62 71.1271 22.012C71.5004 22.404 71.9718 22.6 72.5411 22.6ZM81.2018 24V18.554H80.2498V17.056H81.2018V16.244C81.2018 15.404 81.4118 14.8067 81.8318 14.452C82.2612 14.0973 82.8398 13.92 83.5678 13.92H84.3378V15.446H83.8478C83.5398 15.446 83.3205 15.5067 83.1898 15.628C83.0592 15.7493 82.9938 15.9547 82.9938 16.244V17.056H84.4918V18.554H82.9938V24H81.2018ZM88.6897 24.168C88.0177 24.168 87.411 24.014 86.8697 23.706C86.3377 23.398 85.913 22.9733 85.5957 22.432C85.2877 21.8813 85.1337 21.2467 85.1337 20.528C85.1337 19.8093 85.2923 19.1793 85.6097 18.638C85.927 18.0873 86.3517 17.658 86.8837 17.35C87.425 17.042 88.0317 16.888 88.7037 16.888C89.3663 16.888 89.9637 17.042 90.4957 17.35C91.037 17.658 91.4617 18.0873 91.7697 18.638C92.087 19.1793 92.2457 19.8093 92.2457 20.528C92.2457 21.2467 92.087 21.8813 91.7697 22.432C91.4617 22.9733 91.037 23.398 90.4957 23.706C89.9543 24.014 89.3523 24.168 88.6897 24.168ZM88.6897 22.614C89.1563 22.614 89.5623 22.4413 89.9077 22.096C90.253 21.7413 90.4257 21.2187 90.4257 20.528C90.4257 19.8373 90.253 19.3193 89.9077 18.974C89.5623 18.6193 89.161 18.442 88.7037 18.442C88.2277 18.442 87.817 18.6193 87.4717 18.974C87.1357 19.3193 86.9677 19.8373 86.9677 20.528C86.9677 21.2187 87.1357 21.7413 87.4717 22.096C87.817 22.4413 88.223 22.614 88.6897 22.614ZM93.5679 24V13.92H95.3599V24H93.5679ZM100.103 24.168C99.4496 24.168 98.8663 24.0093 98.3529 23.692C97.8396 23.3747 97.4336 22.9407 97.1349 22.39C96.8363 21.8393 96.6869 21.214 96.6869 20.514C96.6869 19.814 96.8363 19.1933 97.1349 18.652C97.4336 18.1013 97.8396 17.672 98.3529 17.364C98.8663 17.0467 99.4496 16.888 100.103 16.888C100.626 16.888 101.083 16.986 101.475 17.182C101.867 17.378 102.184 17.6533 102.427 18.008V13.92H104.219V24H102.623L102.427 23.006C102.203 23.314 101.904 23.5847 101.531 23.818C101.167 24.0513 100.691 24.168 100.103 24.168ZM100.481 22.6C101.06 22.6 101.531 22.4087 101.895 22.026C102.268 21.634 102.455 21.1347 102.455 20.528C102.455 19.9213 102.268 19.4267 101.895 19.044C101.531 18.652 101.06 18.456 100.481 18.456C99.9116 18.456 99.4403 18.6473 99.0669 19.03C98.6936 19.4127 98.5069 19.9073 98.5069 20.514C98.5069 21.1207 98.6936 21.62 99.0669 22.012C99.4403 22.404 99.9116 22.6 100.481 22.6ZM109.138 24.168C108.438 24.168 107.817 24.0187 107.276 23.72C106.734 23.4213 106.31 23.0013 106.002 22.46C105.694 21.9187 105.54 21.2933 105.54 20.584C105.54 19.8653 105.689 19.226 105.988 18.666C106.296 18.106 106.716 17.672 107.248 17.364C107.789 17.0467 108.424 16.888 109.152 16.888C109.833 16.888 110.435 17.0373 110.958 17.336C111.48 17.6347 111.886 18.0453 112.176 18.568C112.474 19.0813 112.624 19.6553 112.624 20.29C112.624 20.3927 112.619 20.5 112.61 20.612C112.61 20.724 112.605 20.8407 112.596 20.962H107.318C107.355 21.5033 107.542 21.928 107.878 22.236C108.223 22.544 108.638 22.698 109.124 22.698C109.488 22.698 109.791 22.6187 110.034 22.46C110.286 22.292 110.472 22.0773 110.594 21.816H112.414C112.283 22.2547 112.064 22.656 111.756 23.02C111.457 23.3747 111.084 23.6547 110.636 23.86C110.197 24.0653 109.698 24.168 109.138 24.168ZM109.152 18.344C108.713 18.344 108.326 18.47 107.99 18.722C107.654 18.9647 107.439 19.338 107.346 19.842H110.804C110.776 19.3847 110.608 19.0207 110.3 18.75C109.992 18.4793 109.609 18.344 109.152 18.344ZM113.851 24V17.056H115.447L115.615 18.358C115.867 17.91 116.208 17.5553 116.637 17.294C117.076 17.0233 117.589 16.888 118.177 16.888V18.778H117.673C117.281 18.778 116.931 18.8387 116.623 18.96C116.315 19.0813 116.072 19.2913 115.895 19.59C115.727 19.8887 115.643 20.304 115.643 20.836V24H113.851Z" fill="#445EE2"/>
<rect x="0.5" y="0.5" width="138" height="37" rx="4.5" stroke="#445EE2"/>
</svg>
