<svg width="16" height="16" viewBox="0 0 16 16" fill="none" xmlns="http://www.w3.org/2000/svg">
<path d="M12.8528 7.30664H3.14718C2.38142 7.30664 1.76066 7.92741 1.76066 8.69316V13.546C1.76066 14.3117 2.38142 14.9325 3.14718 14.9325H12.8528C13.6186 14.9325 14.2393 14.3117 14.2393 13.546V8.69316C14.2393 7.92741 13.6186 7.30664 12.8528 7.30664Z" stroke="white" stroke-width="2" stroke-linecap="round" stroke-linejoin="round"/>
<path d="M4.5337 7.30672V4.53368C4.5337 3.61436 4.8989 2.7327 5.54896 2.08264C6.19901 1.43258 7.08068 1.06738 8 1.06738C8.91932 1.06738 9.80099 1.43258 10.451 2.08264C11.1011 2.7327 11.4663 3.61436 11.4663 4.53368V7.30672" stroke="white" stroke-width="2" stroke-linecap="round" stroke-linejoin="round"/>
</svg>
